<svg width="157" height="54" viewBox="0 0 157 54" fill="none" xmlns="http://www.w3.org/2000/svg">
<g filter="url(#filter0_d_1068_361)">
<rect x="4.5" y="0.5" width="148" height="45" rx="19.5" fill="white" stroke="url(#paint0_linear_1068_361)"/>
<path d="M48.0469 24.0146H44.8037L44.7861 22.6523H47.7305C48.2168 22.6523 48.6416 22.5703 49.0049 22.4062C49.3682 22.2422 49.6494 22.0078 49.8486 21.7031C50.0537 21.3926 50.1562 21.0234 50.1562 20.5957C50.1562 20.127 50.0654 19.7461 49.8838 19.4531C49.708 19.1543 49.4355 18.9375 49.0664 18.8027C48.7031 18.6621 48.2402 18.5918 47.6777 18.5918H45.1816V30H43.4854V17.2031H47.6777C48.334 17.2031 48.9199 17.2705 49.4355 17.4053C49.9512 17.5342 50.3877 17.7393 50.7451 18.0205C51.1084 18.2959 51.3838 18.6475 51.5713 19.0752C51.7588 19.5029 51.8525 20.0156 51.8525 20.6133C51.8525 21.1406 51.7178 21.6182 51.4482 22.0459C51.1787 22.4678 50.8037 22.8135 50.3232 23.083C49.8486 23.3525 49.292 23.5254 48.6533 23.6016L48.0469 24.0146ZM47.9678 30H44.1357L45.0938 28.6201H47.9678C48.5068 28.6201 48.9639 28.5264 49.3389 28.3389C49.7197 28.1514 50.0098 27.8877 50.209 27.5479C50.4082 27.2021 50.5078 26.7949 50.5078 26.3262C50.5078 25.8516 50.4229 25.4414 50.2529 25.0957C50.083 24.75 49.8164 24.4834 49.4531 24.2959C49.0898 24.1084 48.6211 24.0146 48.0469 24.0146H45.6299L45.6475 22.6523H48.9521L49.3125 23.1445C49.9277 23.1973 50.4492 23.373 50.877 23.6719C51.3047 23.9648 51.6299 24.3398 51.8525 24.7969C52.0811 25.2539 52.1953 25.7578 52.1953 26.3086C52.1953 27.1055 52.0195 27.7793 51.668 28.3301C51.3223 28.875 50.833 29.291 50.2002 29.5781C49.5674 29.8594 48.8232 30 47.9678 30ZM60.2725 27.8027V20.4902H61.9072V30H60.3516L60.2725 27.8027ZM60.5801 25.7988L61.2568 25.7812C61.2568 26.4141 61.1895 27 61.0547 27.5391C60.9258 28.0723 60.7148 28.5352 60.4219 28.9277C60.1289 29.3203 59.7451 29.6279 59.2705 29.8506C58.7959 30.0674 58.2188 30.1758 57.5391 30.1758C57.0762 30.1758 56.6514 30.1084 56.2646 29.9736C55.8838 29.8389 55.5557 29.6309 55.2803 29.3496C55.0049 29.0684 54.791 28.7021 54.6387 28.251C54.4922 27.7998 54.4189 27.2578 54.4189 26.625V20.4902H56.0449V26.6426C56.0449 27.0703 56.0918 27.4248 56.1855 27.7061C56.2852 27.9814 56.417 28.2012 56.5811 28.3652C56.751 28.5234 56.9385 28.6348 57.1436 28.6992C57.3545 28.7637 57.5713 28.7959 57.7939 28.7959C58.4854 28.7959 59.0332 28.6641 59.4375 28.4004C59.8418 28.1309 60.1318 27.7705 60.3076 27.3193C60.4893 26.8623 60.5801 26.3555 60.5801 25.7988ZM67.0576 29.0156L69.7031 20.4902H71.4434L67.6289 31.4678C67.541 31.7021 67.4238 31.9541 67.2773 32.2236C67.1367 32.499 66.9551 32.7598 66.7324 33.0059C66.5098 33.252 66.2402 33.4512 65.9238 33.6035C65.6133 33.7617 65.2412 33.8408 64.8076 33.8408C64.6787 33.8408 64.5146 33.8232 64.3154 33.7881C64.1162 33.7529 63.9756 33.7236 63.8936 33.7002L63.8848 32.3818C63.9316 32.3877 64.0049 32.3936 64.1045 32.3994C64.21 32.4111 64.2832 32.417 64.3242 32.417C64.6934 32.417 65.0068 32.3672 65.2646 32.2676C65.5225 32.1738 65.7393 32.0127 65.915 31.7842C66.0967 31.5615 66.252 31.2539 66.3809 30.8613L67.0576 29.0156ZM65.1152 20.4902L67.585 27.873L68.0068 29.5869L66.8379 30.1846L63.3398 20.4902H65.1152ZM87.4658 17.2031V30H85.7607L79.3184 20.1299V30H77.6221V17.2031H79.3184L85.7871 27.0996V17.2031H87.4658ZM89.7949 25.3506V25.1484C89.7949 24.4629 89.8945 23.8271 90.0938 23.2412C90.293 22.6494 90.5801 22.1367 90.9551 21.7031C91.3301 21.2637 91.7842 20.9238 92.3174 20.6836C92.8506 20.4375 93.4482 20.3145 94.1104 20.3145C94.7783 20.3145 95.3789 20.4375 95.9121 20.6836C96.4512 20.9238 96.9082 21.2637 97.2832 21.7031C97.6641 22.1367 97.9541 22.6494 98.1533 23.2412C98.3525 23.8271 98.4521 24.4629 98.4521 25.1484V25.3506C98.4521 26.0361 98.3525 26.6719 98.1533 27.2578C97.9541 27.8438 97.6641 28.3564 97.2832 28.7959C96.9082 29.2295 96.4541 29.5693 95.9209 29.8154C95.3936 30.0557 94.7959 30.1758 94.1279 30.1758C93.46 30.1758 92.8594 30.0557 92.3262 29.8154C91.793 29.5693 91.3359 29.2295 90.9551 28.7959C90.5801 28.3564 90.293 27.8438 90.0938 27.2578C89.8945 26.6719 89.7949 26.0361 89.7949 25.3506ZM91.4209 25.1484V25.3506C91.4209 25.8252 91.4766 26.2734 91.5879 26.6953C91.6992 27.1113 91.8662 27.4805 92.0889 27.8027C92.3174 28.125 92.6016 28.3799 92.9414 28.5674C93.2812 28.749 93.6768 28.8398 94.1279 28.8398C94.5732 28.8398 94.9629 28.749 95.2969 28.5674C95.6367 28.3799 95.918 28.125 96.1406 27.8027C96.3633 27.4805 96.5303 27.1113 96.6416 26.6953C96.7588 26.2734 96.8174 25.8252 96.8174 25.3506V25.1484C96.8174 24.6797 96.7588 24.2373 96.6416 23.8213C96.5303 23.3994 96.3604 23.0273 96.1318 22.7051C95.9092 22.377 95.6279 22.1191 95.2881 21.9316C94.9541 21.7441 94.5615 21.6504 94.1104 21.6504C93.665 21.6504 93.2725 21.7441 92.9326 21.9316C92.5986 22.1191 92.3174 22.377 92.0889 22.7051C91.8662 23.0273 91.6992 23.3994 91.5879 23.8213C91.4766 24.2373 91.4209 24.6797 91.4209 25.1484ZM102.899 28.3125L105.343 20.4902H106.415L106.204 22.0459L103.717 30H102.671L102.899 28.3125ZM101.256 20.4902L103.339 28.4004L103.488 30H102.39L99.6299 20.4902H101.256ZM108.753 28.3389L110.739 20.4902H112.356L109.597 30H108.507L108.753 28.3389ZM106.652 20.4902L109.043 28.1807L109.315 30H108.278L105.721 22.0283L105.51 20.4902H106.652Z" fill="#4343E8"/>
</g>
<defs>
<filter id="filter0_d_1068_361" x="0" y="0" width="157" height="54" filterUnits="userSpaceOnUse" color-interpolation-filters="sRGB">
<feFlood flood-opacity="0" result="BackgroundImageFix"/>
<feColorMatrix in="SourceAlpha" type="matrix" values="0 0 0 0 0 0 0 0 0 0 0 0 0 0 0 0 0 0 127 0" result="hardAlpha"/>
<feOffset dy="4"/>
<feGaussianBlur stdDeviation="2"/>
<feComposite in2="hardAlpha" operator="out"/>
<feColorMatrix type="matrix" values="0 0 0 0 0.682353 0 0 0 0 0.701961 0 0 0 0 0.976471 0 0 0 0.3 0"/>
<feBlend mode="normal" in2="BackgroundImageFix" result="effect1_dropShadow_1068_361"/>
<feBlend mode="normal" in="SourceGraphic" in2="effect1_dropShadow_1068_361" result="shape"/>
</filter>
<linearGradient id="paint0_linear_1068_361" x1="4" y1="23" x2="153" y2="23" gradientUnits="userSpaceOnUse">
<stop stop-color="#5656EC"/>
<stop offset="1" stop-color="#D0A3EC"/>
</linearGradient>
</defs>
</svg>
